<?xml version="1.0" encoding="UTF-8"?>
<svg width="306px" height="77px" viewBox="0 0 306 77" version="1.1" xmlns="http://www.w3.org/2000/svg" xmlns:xlink="http://www.w3.org/1999/xlink">
    <!-- Generator: Sketch 61.2 (89653) - https://sketch.com -->
    <title>logo-dark</title>
    <desc>Created with Sketch.</desc>
    <g id="logo-dark" stroke="none" stroke-width="1" fill="none" fill-rule="evenodd">
        <g id="Group-2" transform="translate(0.000000, 3.000000)" fill-rule="nonzero">
            <path d="M33.5,4 C49.7927223,4 63,17.2072777 63,33.5 C63,49.7927223 49.7927223,63 33.5,63 C17.2072777,63 4,49.7927223 4,33.5 C4,17.2072777 17.2080981,4 33.5,4 Z M32.0126533,5.5300064 C17.1629773,5.5300064 5.12391891,17.5682444 5.12391891,32.4187408 C5.12391891,47.2692372 17.1621569,59.3074752 32.0126533,59.3074752 C46.8631497,59.3074752 58.9013877,47.2684168 58.9013877,32.4187408 C58.9013877,17.5682444 46.8631497,5.5300064 32.0126533,5.5300064 Z" id="Shape" fill="#0095C8"></path>
            <path d="M36,0 C55.8826321,0 72,16.1181893 72,36 C72,55.8818107 55.8826321,72 36,72 C16.1181893,72 0,55.8826321 0,36 C0,16.1181893 16.1173679,0 36,0 Z M35.64023,0.610294789 C17.2040705,0.610294789 2.25882997,15.5555353 2.25882997,33.9916948 C2.25882997,52.4278543 17.2040705,67.3730948 35.64023,67.3730948 C54.0763895,67.3730948 69.02163,52.4278543 69.02163,33.9916948 C69.02163,15.5555353 54.0763895,0.610294789 35.64023,0.610294789 Z" id="Shape" fill="#0F1322"></path>
        </g>
        <g id="Group" transform="translate(81.000000, 28.000000)">
            <path d="M167.562055,3.948775 L164.858204,6.72554423 C163.147998,4.84822128 161.152132,3.90983793 158.874895,3.90983793 C156.892964,3.90983793 155.229921,4.59068039 153.890054,5.9573715 C152.549652,7.32350636 151.879718,8.98222548 151.879718,10.9368663 C151.879718,12.954919 152.573233,14.6664813 153.964551,16.0721094 C155.356405,17.4777376 157.071434,18.1774924 159.109639,18.1774924 C160.435572,18.1774924 161.555164,17.8860206 162.46413,17.3069707 C163.373095,16.7284772 164.10895,15.8240247 164.666335,14.5891634 L158.823444,14.5891634 L158.823444,10.853986 L168.972131,10.853986 L169,11.73452 C169,13.5673434 168.54123,15.3039367 167.62744,16.9476372 C166.709364,18.5863316 165.52385,19.8406614 164.071434,20.7061768 C162.614195,21.5672423 160.903989,22 158.945104,22 C156.85116,22 154.981778,21.5283052 153.336957,20.5849157 C151.692137,19.6365199 150.39461,18.2943036 149.434193,16.5488104 C148.478064,14.7977548 148,12.9159819 148,10.8929231 C148,8.12116002 148.88592,5.70928674 150.651864,3.66175318 C152.746344,1.22095522 155.478064,0 158.837378,0 C160.594748,0 162.239032,0.335415034 163.771304,1.01180754 C165.05972,1.58084498 166.32509,2.5631716 167.562055,3.948775 Z M171,22 L175,22 L175,1 L171,1 L171,22 Z M190.130607,6.37346841 L194,6.37346841 L194,21.6265316 L190.130607,21.6265316 L190.130607,20.0034225 C189.374142,20.7120268 188.613241,21.2196591 187.851785,21.5307003 C187.090884,21.8417414 186.261768,22 185.374419,22 C183.371785,22 181.645893,21.2388254 180.186205,19.7115477 C178.727071,18.1891984 178,16.2933808 178,14.0290232 C178,11.6781436 178.70766,9.75385037 180.118544,8.2506674 C181.529428,6.75186529 183.240901,6 185.257955,6 C186.189116,6 187.056499,6.17249641 187.871196,6.51256075 C188.685893,6.85262509 189.437366,7.36956671 190.130607,8.04914779 L190.130607,6.37346841 Z M185.96792,10 C184.827768,10 183.880621,10.4166159 183.131212,11.2558777 C182.377071,12.0896577 182,13.1629918 182,14.4714947 C182,15.7893166 182.381804,16.8719698 183.149619,17.7254842 C183.917434,18.5735169 184.859847,19 185.981593,19 C187.135419,19 188.096766,18.5833841 188.855114,17.7446705 C189.618196,16.9103423 190,15.8134365 190,14.4566939 C190,13.1295529 189.618196,12.0556706 188.855114,11.2317578 C188.096766,10.4122305 187.131212,10 185.96792,10 Z M206.708521,8.53268533 L204.306043,10.9120405 C203.333704,9.95482237 202.448698,9.47621329 201.651024,9.47621329 C201.218255,9.47621329 200.877826,9.56711616 200.629735,9.7489219 C200.381643,9.93072763 200.259823,10.1557944 200.259823,10.4241221 C200.259823,10.629475 200.337699,10.8167568 200.493451,10.9887056 C200.649204,11.161202 201.038028,11.3955781 201.655474,11.6973099 L203.075601,12.3960572 C204.573603,13.1188993 205.604349,13.8614553 206.163944,14.6127729 C206.722984,15.3695667 207,16.2501198 207,17.2648367 C207,18.6152372 206.494362,19.7449517 205.483085,20.6452187 C204.471252,21.5498665 203.114539,22 201.412389,22 C199.156207,22 197.347257,21.1331371 196,19.3955781 L198.397472,16.8294887 C198.854716,17.3513588 199.389279,17.7773975 200.007282,18.097748 C200.619722,18.418646 201.164298,18.5818331 201.641011,18.5818331 C202.151656,18.5818331 202.569962,18.461907 202.881466,18.217674 C203.197421,17.973441 203.353173,17.695804 203.353173,17.3798343 C203.353173,16.7911561 202.788571,16.2167157 201.655474,15.6614416 L200.347712,15.014717 C197.838432,13.7749333 196.583515,12.2241084 196.583515,10.3616948 C196.583515,9.16024369 197.055221,8.13074132 197.998635,7.27866384 C198.942048,6.42658635 200.148015,6 201.617092,6 C202.623363,6 203.566776,6.22068588 204.456789,6.65603395 C205.341795,7.09192963 206.091075,7.71894038 206.708521,8.53268533 Z M219.708521,8.53268533 L217.306043,10.9120405 C216.333704,9.95482237 215.448698,9.47621329 214.651024,9.47621329 C214.218255,9.47621329 213.877826,9.56711616 213.629735,9.7489219 C213.381643,9.93072763 213.259823,10.1557944 213.259823,10.4241221 C213.259823,10.629475 213.337699,10.8167568 213.493451,10.9887056 C213.649204,11.161202 214.038028,11.3955781 214.655474,11.6973099 L216.075601,12.3960572 C217.573603,13.1188993 218.604349,13.8614553 219.163944,14.6127729 C219.722984,15.3695667 220,16.2501198 220,17.2648367 C220,18.6152372 219.494362,19.7449517 218.483085,20.6452187 C217.471252,21.5498665 216.114539,22 214.412389,22 C212.156207,22 210.347257,21.1331371 209,19.3955781 L211.397472,16.8294887 C211.854716,17.3513588 212.389279,17.7773975 213.007282,18.097748 C213.619722,18.418646 214.164298,18.5818331 214.641011,18.5818331 C215.151656,18.5818331 215.569962,18.461907 215.88091,18.217674 C216.197421,17.973441 216.353173,17.695804 216.353173,17.3798343 C216.353173,16.7911561 215.788571,16.2167157 214.655474,15.6614416 L213.347712,15.014717 C210.838432,13.7749333 209.583515,12.2241084 209.583515,10.3616948 C209.583515,9.16024369 210.055221,8.13074132 210.998635,7.27866384 C211.942048,6.42658635 213.148015,6 214.617092,6 C215.623363,6 216.566776,6.22068588 217.456789,6.65603395 C218.341795,7.09192963 219.091075,7.71894038 219.708521,8.53268533 L219.708521,8.53268533 Z" id="Fill-4" fill="#0095C8"></path>
            <polygon id="Path" fill="#0F1322" points="0 22 2.82174424 1 3.24238364 1 11.5281147 18.2268805 19.7619417 1 20.0695816 1 23 22 21.0287259 22 18.987165 6.96662507 11.7741185 22 11.2399389 22 3.95606488 6.84953403 2.00371415 22"></polygon>
            <path d="M27.4956596,0 C27.9108085,0 28.2636596,0.146255061 28.5582979,0.442813765 C28.8529362,0.734817814 29,1.09311741 29,1.50455466 C29,1.91143725 28.8529362,2.26518219 28.5582979,2.55769231 C28.2636596,2.85374494 27.9108085,3 27.4956596,3 C27.0851064,3 26.7368511,2.85374494 26.4422128,2.55769231 C26.1475745,2.26518219 26,1.91143725 26,1.50455466 C26,1.09311741 26.1475745,0.734817814 26.4422128,0.442813765 C26.7368511,0.146255061 27.0851064,0 27.4956596,0 Z" id="Path" fill="#0F1322"></path>
            <polygon id="Path" fill="#0F1322" points="27 22 29 22 29 7 27 7"></polygon>
            <polygon id="Path" fill="#0F1322" points="32 22 34 22 34 1 32 1"></polygon>
            <polygon id="Path" fill="#0F1322" points="38 22 40 22 40 1 38 1"></polygon>
            <path d="M50.9561872,6 C53.5988215,6 55.7123744,6.98678897 57.2879723,8.95434321 C58.4082496,10.3425286 58.9805893,12.0757068 59,14.1582586 L45.0364645,14.1582586 C45.0747314,15.9242932 45.6520624,17.370525 46.762357,18.4953111 C47.877643,19.6250257 49.2541421,20.1901568 50.8885269,20.1901568 C51.6788215,20.1901568 52.4497054,20.0559929 53.1961872,19.7882127 C53.942669,19.519885 54.5782322,19.1655829 55.1017678,18.7203778 C55.6253033,18.2751728 56.1926516,17.5616401 56.7982669,16.5710179 L58.4759099,17.4422616 C57.9235355,18.5002396 57.2879723,19.3572455 56.5658925,20.008351 C55.8432582,20.654528 55.0335529,21.1523034 54.1317851,21.4923677 C53.225026,21.8324321 52.2073484,22 51.0676603,22 C48.5370537,22 46.5638128,21.1857074 45.1379549,19.5582175 C43.7126516,17.9307276 43,16.0924088 43,14.043261 C43,12.1140393 43.6056153,10.3901704 44.8129636,8.88260661 C46.340312,6.96269423 48.3911958,6 50.9561872,6 Z M50.9569089,8 C49.3751795,8 48.0186728,8.52067199 46.8833668,9.56797331 C46.0496984,10.3334922 45.4268888,11.4737281 45,13 L57,13 C56.7236426,11.8591684 56.3214594,10.9530561 55.7940247,10.2709401 C55.2619937,9.58882402 54.5639184,9.04193971 53.694628,8.62492553 C52.8259121,8.20850709 51.911807,8 50.9569089,8 Z" id="Combined-Shape" fill="#0F1322"></path>
            <path d="M63,6.38239417 L64.9052139,6.38239417 L64.9052139,9.18138492 C65.6759522,8.11326044 66.5257406,7.31426969 67.4545791,6.78945893 C68.3887588,6.26520886 69.4019886,6 70.4990756,6 C71.6153909,6 72.6051194,6.29436501 73.4687949,6.8875806 C74.3330046,7.48079619 74.972883,8.27978694 75.383623,9.28455285 C75.794363,10.2848332 76,11.8480516 76,13.9708438 L76,22 L74.0947861,22 L74.0947861,14.5590132 C74.0947861,12.7647883 74.020009,11.5637791 73.8752619,10.9610317 C73.6418505,9.93159518 73.2124163,9.15727502 72.5821521,8.63246426 C71.9513538,8.11326044 71.1298739,7.85309784 70.1166441,7.85309784 C68.9538601,7.85309784 67.9123218,8.25511634 66.9973705,9.05915335 C66.0770779,9.8581441 65.4703151,10.8528175 65.1808209,12.0392487 C64.9986852,12.8141295 64.9052139,14.2253995 64.9052139,16.2792262 L64.9052139,22 L63,22 L63,6.38239417 Z" id="Path" fill="#0F1322"></path>
            <path d="M81,6.38239417 L82.9052921,6.38239417 L82.9052921,9.18138492 C83.675528,8.11326044 84.5253513,7.31426969 85.4547621,6.78945893 C86.3884461,6.26520886 87.4017175,6 88.4993837,6 C89.6152108,6 90.605514,6.29436501 91.4692251,6.8875806 C92.3329361,7.48079619 92.9728408,8.27978694 93.3835977,9.28455285 C93.7948887,10.2848332 94,11.8480516 94,13.9708438 L94,22 L92.0947079,22 L92.0947079,14.5590132 C92.0947079,12.7647883 92.0204618,11.5637791 91.8757088,10.9610317 C91.6422878,9.93159518 91.2123018,9.15727502 90.5820117,8.63246426 C89.9517216,8.11326044 89.1296738,7.85309784 88.1164023,7.85309784 C86.9535705,7.85309784 85.9119895,8.25511634 84.9970006,9.05915335 C84.0772044,9.8581441 83.4698825,10.8528175 83.1803764,12.0392487 C82.9982332,12.8141295 82.9052921,14.2253995 82.9052921,16.2792262 L82.9052921,22 L81,22 L81,6.38239417 Z" id="Path" fill="#0F1322"></path>
            <path d="M98.4956596,0 C98.9108085,0 99.2636596,0.146255061 99.5582979,0.442813765 C99.8529362,0.734817814 100,1.09311741 100,1.50455466 C100,1.91143725 99.8529362,2.26518219 99.5582979,2.55769231 C99.2636596,2.85374494 98.9108085,3 98.4956596,3 C98.0851064,3 97.7368511,2.85374494 97.4422128,2.55769231 C97.1475745,2.26518219 97,1.91143725 97,1.50455466 C97,1.09311741 97.1475745,0.734817814 97.4422128,0.442813765 C97.7368511,0.146255061 98.0851064,0 98.4956596,0 Z" id="Path" fill="#0F1322"></path>
            <polygon id="Path" fill="#0F1322" points="98 22 100 22 100 7 98 7"></polygon>
            <path d="M104,6 L105.901074,6 L105.901074,13.2890384 C105.901074,15.0686852 105.994342,16.2893188 106.176082,16.960471 C106.446294,17.9164564 106.97286,18.6711522 107.741924,19.2256798 C108.510454,19.7790861 109.433011,20.058873 110.5,20.058873 C111.566989,20.058873 112.470892,19.7891786 113.216505,19.2497897 C113.957322,18.7059153 114.474295,18 114.7541,17.1174657 C114.9449,16.5147183 115.042965,15.2402579 115.042965,13.2890384 L115.042965,6 L117,6 L117,13.6568545 C117,15.8088029 116.762299,17.4264087 116.282101,18.5147183 C115.807232,19.6075133 115.084536,20.4603308 114.125205,21.0731707 C113.165341,21.6910569 111.96298,22 110.513857,22 C109.064734,22 107.858109,21.6910569 106.889185,21.0731707 C105.919728,20.4603308 105.192768,19.5979815 104.717899,18.4950939 C104.237701,17.3922063 104,15.7303056 104,13.5149986 L104,6 Z" id="Path" fill="#0F1322"></path>
            <path d="M121,6.38239417 L122.969819,6.38239417 L122.969819,9.08382394 C123.660112,8.08858985 124.364763,7.35800392 125.094264,6.89711242 C126.093256,6.29941127 127.145814,6 128.246416,6 C128.995246,6 129.699897,6.14746285 130.370861,6.44631343 C131.041826,6.74067844 131.587433,7.13765069 132.012101,7.62769835 C132.437321,8.12279226 132.804005,8.8287076 133.117674,9.75049061 C133.77428,8.52481077 134.59987,7.59349593 135.585056,6.95598542 C136.57466,6.3190356 137.636606,6 138.776417,6 C139.838363,6 140.779923,6.27474068 141.590602,6.81917578 C142.406804,7.36305018 143.009844,8.12279226 143.405796,9.09840202 C143.801748,10.0734511 144,11.5346229 144,13.4852817 L144,22 L141.972196,22 L141.972196,13.4802355 C141.972196,11.8037567 141.856227,10.6571348 141.619871,10.0297168 C141.382962,9.40229885 140.982593,8.89711242 140.412687,8.51471825 C139.843334,8.13232408 139.167399,7.94168769 138.375495,7.94168769 C137.419578,7.94168769 136.540973,8.23044575 135.74907,8.80403701 C134.952748,9.37762826 134.373454,10.1424166 134.006219,11.098402 C133.639535,12.0538267 133.455641,13.6518082 133.455641,15.8873003 L133.455641,22 L131.486374,22 L131.486374,14.0100925 C131.486374,12.1278385 131.370405,10.8483319 131.138467,10.1715728 C130.907081,9.49537426 130.506159,8.95598542 129.931835,8.54948136 C129.351989,8.1424166 128.671637,7.94168769 127.879733,7.94168769 C126.962472,7.94168769 126.108166,8.22091393 125.311292,8.77936641 C124.514418,9.33837959 123.925737,10.0936361 123.544143,11.039529 C123.162549,11.9854219 122.969819,13.4365013 122.969819,15.3871601 L122.969819,22 L121,22 L121,6.38239417 Z" id="Path" fill="#0F1322"></path>
        </g>
    </g>
</svg>