<?xml version="1.0" encoding="UTF-8"?>
<svg width="306px" height="77px" viewBox="0 0 306 77" version="1.1" xmlns="http://www.w3.org/2000/svg" xmlns:xlink="http://www.w3.org/1999/xlink">
    <!-- Generator: Sketch 61.2 (89653) - https://sketch.com -->
    <title>logo-dark-rev</title>
    <desc>Created with Sketch.</desc>
    <g id="logo-dark-rev" stroke="none" stroke-width="1" fill="none" fill-rule="evenodd">
        <rect fill="#0095C8" x="0" y="0" width="306" height="77"></rect>
        <g id="Group-2" transform="translate(12.000000, 9.000000)" fill="#FFFFFF" fill-rule="nonzero">
            <path d="M28.5,3 C42.3073918,3 53.5,14.1926082 53.5,28 C53.5,41.8073918 42.3073918,53 28.5,53 C14.6926082,53 3.5,41.8073918 3.5,28 C3.5,14.1926082 14.6933035,3 28.5,3 Z M27.2395367,4.29661559 C14.6550655,4.29661559 4.45247365,14.4985122 4.45247365,27.0836786 C4.45247365,39.6688451 14.6543703,49.8707417 27.2395367,49.8707417 C39.8247031,49.8707417 50.0265997,39.6681498 50.0265997,27.0836786 C50.0265997,14.4985122 39.8247031,4.29661559 27.2395367,4.29661559 Z" id="Shape"></path>
            <path d="M30.5,0 C47.0688601,0 60.5,13.4318244 60.5,30 C60.5,46.5681756 47.0688601,60 30.5,60 C13.9318244,60 0.5,46.5688601 0.5,30 C0.5,13.4318244 13.9311399,0 30.5,0 Z M30.2001917,0.508578991 C14.8367254,0.508578991 2.38235831,12.9629461 2.38235831,28.3264123 C2.38235831,43.6898786 14.8367254,56.1442457 30.2001917,56.1442457 C45.5636579,56.1442457 58.018025,43.6898786 58.018025,28.3264123 C58.018025,12.9629461 45.5636579,0.508578991 30.2001917,0.508578991 Z" id="Shape"></path>
        </g>
        <g id="Group" transform="translate(78.000000, 28.000000)" fill="#FFFFFF">
            <path d="M159.746969,3.76928523 L157.155779,6.41983768 C155.516831,4.62784759 153.604127,3.73211802 151.421774,3.73211802 C149.522424,3.73211802 147.928674,4.3820131 146.644635,5.68658188 C145.360083,6.99061971 144.718063,8.5739425 144.718063,10.439736 C144.718063,12.366059 145.382682,13.999823 146.716028,15.341559 C148.049888,16.683295 149.693458,17.3512427 151.646738,17.3512427 C152.917423,17.3512427 153.990366,17.0730196 154.861458,16.5202903 C155.73255,15.9680918 156.437744,15.1047508 156.971904,13.9260196 L151.372467,13.9260196 L151.372467,10.360623 L161.098292,10.360623 L161.125,11.2011327 C161.125,12.950646 160.685345,14.6083032 159.80963,16.1772901 C158.929807,17.7414983 157.793689,18.9388132 156.401791,19.764987 C155.00527,20.5869131 153.366323,21 151.489058,21 C149.482362,21 147.69087,20.5497459 146.114584,19.6492377 C144.538298,18.7439508 143.294834,17.4627443 142.374435,15.7965917 C141.458145,14.1251296 141,12.3288918 141,10.3977902 C141,7.75201638 141.849007,5.44977371 143.54137,3.49530985 C145.54858,1.16545726 148.166478,0 151.385821,0 C153.069967,0 154.645739,0.320168896 156.114166,0.965816288 C157.348898,1.50898839 158.561545,2.4466638 159.746969,3.76928523 Z M163.041667,21 L166.875,21 L166.875,0.954545455 L163.041667,0.954545455 L163.041667,21 Z M181.375165,6.0837653 L185.083333,6.0837653 L185.083333,20.6435074 L181.375165,20.6435074 L181.375165,19.0941761 C180.65022,19.7705711 179.921023,20.2551292 179.191294,20.5520321 C178.462097,20.848935 177.667527,21 176.817152,21 C174.897961,21 173.24398,20.2734242 171.845113,18.8155682 C170.446776,17.3624167 169.75,15.5527726 169.75,13.3913403 C169.75,11.1473189 170.428174,9.31049353 171.780272,7.87563706 C173.132369,6.44496232 174.77253,5.72727273 176.70554,5.72727273 C177.597903,5.72727273 178.429145,5.89192839 179.209896,6.21653526 C179.990647,6.54114214 180.710809,7.0345864 181.375165,7.68327743 L181.375165,6.0837653 Z M177.385923,9.54545455 C176.293277,9.54545455 175.385595,9.94313337 174.667412,10.7442469 C173.944693,11.5401278 173.583333,12.564674 173.583333,13.8136995 C173.583333,15.0716204 173.949229,16.1050621 174.685051,16.9197804 C175.420874,17.7292661 176.324021,18.1363636 177.399027,18.1363636 C178.504777,18.1363636 179.426067,17.7386848 180.152818,16.9380946 C180.884105,16.1416904 181.25,15.0946439 181.25,13.7995714 C181.25,12.5327551 180.884105,11.5076856 180.152818,10.7212234 C179.426067,9.93894728 178.500745,9.54545455 177.385923,9.54545455 Z M197.262332,8.144836 L194.959958,10.4160387 C194.028133,9.50233044 193.180002,9.04547633 192.415565,9.04547633 C192.000828,9.04547633 191.674583,9.13224724 191.436829,9.30578908 C191.199075,9.47933092 191.08233,9.69416736 191.08233,9.95029838 C191.08233,10.146317 191.156962,10.325086 191.306224,10.489219 C191.455487,10.6538746 191.82811,10.8775972 192.419829,11.165614 L193.780784,11.8326001 C195.21637,12.5225857 196.204168,13.2313891 196.740447,13.948556 C197.276193,14.67095 197.541667,15.511478 197.541667,16.4800714 C197.541667,17.76909 197.057097,18.8474539 196.087956,19.7067997 C195.118283,20.5703271 193.818099,21 192.186873,21 C190.024699,21 188.291121,20.17254 187,18.5139609 L189.297577,16.0645119 C189.735769,16.5626606 190.248059,16.969334 190.840312,17.2751231 C191.427233,17.5814349 191.949119,17.7372043 192.405969,17.7372043 C192.895337,17.7372043 193.296214,17.6227295 193.594739,17.3895979 C193.897528,17.1564664 194.046791,16.8914492 194.046791,16.5898419 C194.046791,16.0279218 193.505714,15.4795923 192.419829,14.9495579 L191.166557,14.3322298 C188.761831,13.1487999 187.559201,11.6684671 187.559201,9.89070872 C187.559201,8.74386897 188.011254,7.76116217 188.915358,6.94781548 C189.819463,6.13446879 190.975181,5.72727273 192.383047,5.72727273 C193.347389,5.72727273 194.251494,5.93792743 195.104423,6.35348695 C195.952554,6.76956919 196.670613,7.36807945 197.262332,8.144836 Z M209.720666,8.144836 L207.418291,10.4160387 C206.486466,9.50233044 205.638335,9.04547633 204.873898,9.04547633 C204.459161,9.04547633 204.132916,9.13224724 203.895162,9.30578908 C203.657408,9.47933092 203.540664,9.69416736 203.540664,9.95029838 C203.540664,10.146317 203.615295,10.325086 203.764558,10.489219 C203.91382,10.6538746 204.286443,10.8775972 204.878163,11.165614 L206.239117,11.8326001 C207.674703,12.5225857 208.662501,13.2313891 209.19878,13.948556 C209.734526,14.67095 210,15.511478 210,16.4800714 C210,17.76909 209.51543,18.8474539 208.54629,19.7067997 C207.576616,20.5703271 206.276433,21 204.645206,21 C202.483032,21 200.749454,20.17254 199.458333,18.5139609 L201.75591,16.0645119 C202.194102,16.5626606 202.706393,16.969334 203.298645,17.2751231 C203.885567,17.5814349 204.407453,17.7372043 204.864303,17.7372043 C205.35367,17.7372043 205.754547,17.6227295 206.052539,17.3895979 C206.355862,17.1564664 206.505124,16.8914492 206.505124,16.5898419 C206.505124,16.0279218 205.964048,15.4795923 204.878163,14.9495579 L203.62489,14.3322298 C201.220164,13.1487999 200.017535,11.6684671 200.017535,9.89070872 C200.017535,8.74386897 200.469587,7.76116217 201.373692,6.94781548 C202.277796,6.13446879 203.433515,5.72727273 204.84138,5.72727273 C205.805723,5.72727273 206.709827,5.93792743 207.562756,6.35348695 C208.410887,6.76956919 209.128946,7.36807945 209.720666,8.144836 L209.720666,8.144836 Z" id="Fill-4"></path>
            <polygon id="Path" points="0 21 2.69905971 1 3.10141044 1 11.0268923 17.4065529 18.9027268 1 19.1969911 1 22 21 20.1144335 21 18.1616361 6.68250007 11.2622003 21 10.7512459 21 3.78406206 6.57098479 1.91659614 21"></polygon>
            <path d="M26.4956596,0 C26.9108085,0 27.2636596,0.146255061 27.5582979,0.442813765 C27.8529362,0.734817814 28,1.09311741 28,1.50455466 C28,1.91143725 27.8529362,2.26518219 27.5582979,2.55769231 C27.2636596,2.85374494 26.9108085,3 26.4956596,3 C26.0851064,3 25.7368511,2.85374494 25.4422128,2.55769231 C25.1475745,2.26518219 25,1.91143725 25,1.50455466 C25,1.09311741 25.1475745,0.734817814 25.4422128,0.442813765 C25.7368511,0.146255061 26.0851064,0 26.4956596,0 Z" id="Path"></path>
            <polygon id="Path" points="26 21 28 21 28 7 26 7"></polygon>
            <polygon id="Path" points="31 21 33 21 33 1 31 1"></polygon>
            <polygon id="Path" points="36 21 38 21 38 1 36 1"></polygon>
            <path d="M48.4589255,6 C50.9363951,6 52.917851,6.92511466 54.394974,8.76969676 C55.445234,10.0711205 55.9818024,11.6959751 56,13.6483674 L42.9091854,13.6483674 C42.9450607,15.3040249 43.4863085,16.6598672 44.5272097,17.7143542 C45.5727903,18.7734616 46.8632582,19.303272 48.3954939,19.303272 C49.1363951,19.303272 49.8590988,19.1774933 50.5589255,18.9264494 C51.2587522,18.6748922 51.8545927,18.3427339 52.3454073,17.9253542 C52.8362218,17.5079745 53.3681109,16.8390376 53.9358752,15.9103292 L55.5086655,16.7271203 C54.9908146,17.7189746 54.394974,18.5224177 53.7180243,19.1328291 C53.0405546,19.73862 52.2814558,20.2052844 51.4360485,20.5240947 C50.5859619,20.8429051 49.6318891,21 48.5634315,21 C46.1909879,21 44.3410745,20.2366007 43.0043328,18.7108289 C41.6681109,17.1850572 41,15.4616332 41,13.5405572 C41,11.7319118 41.5677643,10.1157848 42.6996534,8.7024437 C44.1315425,6.90252584 46.0542461,6 48.4589255,6 Z M48.4596021,7.875 C46.9767308,7.875 45.7050057,8.36312999 44.6406564,9.34497498 C43.8590922,10.0626489 43.2752083,11.1316201 42.875,12.5625 L54.125,12.5625 C53.865915,11.4929703 53.4888681,10.6434901 52.9943982,10.0040063 C52.4956191,9.36452252 51.8411735,8.85181848 51.0262137,8.46086769 C50.2117926,8.0704754 49.354819,7.875 48.4596021,7.875 Z" id="Combined-Shape"></path>
            <path d="M60,6.35849453 L61.7586589,6.35849453 L61.7586589,8.98254836 C62.4701097,7.98118167 63.2545298,7.23212784 64.1119191,6.74011775 C64.9742389,6.24863331 65.9095279,6 66.9222236,6 C67.9526686,6 68.866264,6.2759672 69.663503,6.83210681 C70.4612351,7.38824643 71.051892,8.13730025 71.4310366,9.07926829 C71.8101812,10.0170311 72,11.4825484 72,13.4726661 L72,21 L70.2413411,21 L70.2413411,14.0240749 C70.2413411,12.3419891 70.172316,11.2160429 70.0387033,10.6509672 C69.8232466,9.68587048 69.4268458,8.95994533 68.8450635,8.46793524 C68.2627881,7.98118167 67.504499,7.73727923 66.5692099,7.73727923 C65.4958708,7.73727923 64.5344509,8.11417157 63.6898804,8.86795627 C62.8403796,9.61701009 62.2802909,10.5495164 62.0130655,11.6617956 C61.8449402,12.3882464 61.7586589,13.711312 61.7586589,15.6367746 L61.7586589,21 L60,21 L60,6.35849453 Z" id="Path"></path>
            <path d="M78,6.35849453 L79.7587312,6.35849453 L79.7587312,8.98254836 C80.4697181,7.98118167 81.2541704,7.23212784 82.1120881,6.74011775 C82.9739502,6.24863331 83.9092777,6 84.922508,6 C85.9525023,6 86.8666283,6.2759672 87.6639001,6.83210681 C88.4611718,7.38824643 89.0518531,8.13730025 89.4310132,9.07926829 C89.8106664,10.0170311 90,11.4825484 90,13.4726661 L90,21 L88.2412688,21 L88.2412688,14.0240749 C88.2412688,12.3419891 88.172734,11.2160429 88.0391158,10.6509672 C87.8236503,9.68587048 87.4267401,8.95994533 86.8449338,8.46793524 C86.2631276,7.98118167 85.5043142,7.73727923 84.5689868,7.73727923 C83.4956036,7.73727923 82.5341441,8.11417157 81.689539,8.86795627 C80.8404963,9.61701009 80.2798915,10.5495164 80.0126551,11.6617956 C79.844523,12.3882464 79.7587312,13.711312 79.7587312,15.6367746 L79.7587312,21 L78,21 L78,6.35849453 Z" id="Path"></path>
            <path d="M94.4956596,0 C94.9108085,0 95.2636596,0.146255061 95.5582979,0.442813765 C95.8529362,0.734817814 96,1.09311741 96,1.50455466 C96,1.91143725 95.8529362,2.26518219 95.5582979,2.55769231 C95.2636596,2.85374494 94.9108085,3 94.4956596,3 C94.0851064,3 93.7368511,2.85374494 93.4422128,2.55769231 C93.1475745,2.26518219 93,1.91143725 93,1.50455466 C93,1.09311741 93.1475745,0.734817814 93.4422128,0.442813765 C93.7368511,0.146255061 94.0851064,0 94.4956596,0 Z" id="Path"></path>
            <polygon id="Path" points="94 21 96 21 96 7 94 7"></polygon>
            <path d="M99,6 L100.754838,6 L100.754838,12.8334735 C100.754838,14.5018923 100.840931,15.6462363 101.008691,16.2754415 C101.258117,17.1716779 101.744178,17.8792052 102.454083,18.3990749 C103.163496,18.9178932 104.015087,19.1801934 105,19.1801934 C105.984913,19.1801934 106.819285,18.9273549 107.507543,18.4216779 C108.191374,17.9117956 108.66858,17.25 108.926861,16.4226241 C109.102985,15.8575484 109.193506,14.6627418 109.193506,12.8334735 L109.193506,6 L111,6 L111,13.1783011 C111,15.1957527 110.780584,16.7122582 110.337324,17.7325484 C109.898983,18.7570437 109.231879,19.5565601 108.346343,20.1310976 C107.460315,20.7103659 106.350443,21 105.012791,21 C103.675139,21 102.561332,20.7103659 101.66694,20.1310976 C100.772056,19.5565601 100.101017,18.7481077 99.6626763,17.7141505 C99.2194162,16.6801934 99,15.1221615 99,13.0453112 L99,6 Z" id="Path"></path>
            <path d="M115,6.35849453 L116.884175,6.35849453 L116.884175,8.89108495 C117.544455,7.95805299 118.218469,7.27312868 118.916252,6.84104289 C119.87181,6.28069807 120.878605,6 121.931355,6 C122.647627,6 123.32164,6.13824643 123.963432,6.41841884 C124.605225,6.69438604 125.12711,7.06654752 125.533314,7.5259672 C125.940047,7.99011775 126.290787,8.65191337 126.590819,9.51608495 C127.218877,8.36701009 128.008572,7.49390244 128.950923,6.89623633 C129.897501,6.29909588 130.913275,6 132.003529,6 C133.019304,6 133.919926,6.25756939 134.695359,6.76797729 C135.476074,7.27785955 136.052894,7.99011775 136.431631,8.90475189 C136.810368,9.81886039 137,11.188709 137,13.0174516 L137,21 L135.060362,21 L135.060362,13.0127208 C135.060362,11.4410219 134.949435,10.3660639 134.723355,9.77785955 C134.496747,9.18965517 134.113784,8.71604289 133.568657,8.35754836 C133.024058,7.99905383 132.377512,7.82033221 131.620039,7.82033221 C130.705683,7.82033221 129.865279,8.09104289 129.107806,8.62878469 C128.346107,9.16652649 127.792,9.88351556 127.440731,10.7797519 C127.08999,11.6754626 126.914092,13.1735702 126.914092,15.269344 L126.914092,21 L125.030445,21 L125.030445,13.5094617 C125.030445,11.7448486 124.919518,10.5453112 124.697664,9.91084945 C124.476338,9.27691337 124.092847,8.77123633 123.543494,8.39013877 C122.988859,8.00851556 122.338087,7.82033221 121.580614,7.82033221 C120.703234,7.82033221 119.886072,8.08210681 119.123845,8.60565601 C118.361617,9.12973087 117.798531,9.83778385 117.433528,10.7245585 C117.068525,11.6113331 116.884175,12.9717199 116.884175,14.8004626 L116.884175,21 L115,21 L115,6.35849453 Z" id="Path"></path>
        </g>
    </g>
</svg>