<?xml version="1.0" encoding="UTF-8"?>
<svg width="222px" height="72px" viewBox="0 0 222 72" version="1.1" xmlns="http://www.w3.org/2000/svg" xmlns:xlink="http://www.w3.org/1999/xlink">
    <!-- Generator: Sketch 61.2 (89653) - https://sketch.com -->
    <title>logo-dark-stacked</title>
    <desc>Created with Sketch.</desc>
    <g id="logo-dark-stacked" stroke="none" stroke-width="1" fill="none" fill-rule="evenodd">
        <g id="Group-2" fill-rule="nonzero">
            <path d="M33.5,4 C49.7927223,4 63,17.2072777 63,33.5 C63,49.7927223 49.7927223,63 33.5,63 C17.2072777,63 4,49.7927223 4,33.5 C4,17.2072777 17.2080981,4 33.5,4 Z M32.0126533,5.5300064 C17.1629773,5.5300064 5.12391891,17.5682444 5.12391891,32.4187408 C5.12391891,47.2692372 17.1621569,59.3074752 32.0126533,59.3074752 C46.8631497,59.3074752 58.9013877,47.2684168 58.9013877,32.4187408 C58.9013877,17.5682444 46.8631497,5.5300064 32.0126533,5.5300064 Z" id="Shape" fill="#0095C8"></path>
            <path d="M36,0 C55.8826321,0 72,16.1181893 72,36 C72,55.8818107 55.8826321,72 36,72 C16.1181893,72 0,55.8826321 0,36 C0,16.1181893 16.1173679,0 36,0 Z M35.64023,0.610294789 C17.2040705,0.610294789 2.25882997,15.5555353 2.25882997,33.9916948 C2.25882997,52.4278543 17.2040705,67.3730948 35.64023,67.3730948 C54.0763895,67.3730948 69.02163,52.4278543 69.02163,33.9916948 C69.02163,15.5555353 54.0763895,0.610294789 35.64023,0.610294789 Z" id="Shape" fill="#0F1322"></path>
        </g>
        <g id="Fill-5" transform="translate(77.000000, 39.000000)" fill="#0095C8">
            <path d="M19.562055,3.948775 L16.8582038,6.72554423 C15.1479979,4.84822128 13.1521323,3.90983793 10.8748947,3.90983793 C8.89296379,3.90983793 7.22992114,4.59068039 5.89005436,5.9573715 C4.54965163,7.32350636 3.87971825,8.98222548 3.87971825,10.9368663 C3.87971825,12.954919 4.57323329,14.6664813 5.96455095,16.0721094 C7.35640456,17.4777376 9.07143404,18.1774924 11.1096394,18.1774924 C12.4355715,18.1774924 13.5551642,17.8860206 14.4641299,17.3069707 C15.3730955,16.7284772 16.1089503,15.8240247 16.6663349,14.5891634 L10.8234438,14.5891634 L10.8234438,10.853986 L20.9721308,10.853986 L21,11.73452 C21,13.5673434 20.5412296,15.3039367 19.6274405,16.9476372 C18.7093638,18.5863316 17.5238496,19.8406614 16.071434,20.7061768 C14.6141949,21.5672423 12.903989,22 10.9451037,22 C8.85115994,22 6.98177781,21.5283052 5.33695735,20.5849157 C3.6921369,19.6365199 2.39460991,18.2943036 1.4341934,16.5488104 C0.478064467,14.7977548 0,12.9159819 0,10.8929231 C0,8.12116002 0.885919914,5.70928674 2.65186433,3.66175318 C4.74634408,1.22095522 7.47806447,0 10.8373785,0 C12.5947477,0 14.2390322,0.335415034 15.7713039,1.01180754 C17.0597198,1.58084498 18.32509,2.5631716 19.562055,3.948775 Z M23,22 L27,22 L27,1 L23,1 L23,22 Z M42.1306066,6.37346841 L46,6.37346841 L46,21.6265316 L42.1306066,21.6265316 L42.1306066,20.0034225 C41.3741421,20.7120268 40.6132409,21.2196591 39.8517851,21.5307003 C39.0908839,21.8417414 38.2617678,22 37.3744194,22 C35.3717851,22 33.6458925,21.2388254 32.1862045,19.7115477 C30.7270711,18.1891984 30,16.2933808 30,14.0290232 C30,11.6781436 30.7076603,9.75385037 32.1185442,8.2506674 C33.5294281,6.75186529 35.2409012,6 37.2579549,6 C38.1891161,6 39.0564991,6.17249641 39.8711958,6.51256075 C40.6858925,6.85262509 41.4373657,7.36956671 42.1306066,8.04914779 L42.1306066,6.37346841 Z M37.9679201,10 C36.8277676,10 35.8806206,10.4166159 35.1312122,11.2558777 C34.3770707,12.0896577 34,13.1629918 34,14.4714947 C34,15.7893166 34.3818038,16.8719698 35.1496187,17.7254842 C35.9174336,18.5735169 36.8598475,19 37.9815935,19 C39.1354194,19 40.0967657,18.5833841 40.8551144,17.7446705 C41.6181962,16.9103423 42,15.8134365 42,14.4566939 C42,13.1295529 41.6181962,12.0556706 40.8551144,11.2317578 C40.0967657,10.4122305 39.1312122,10 37.9679201,10 Z M58.7085209,8.53268533 L56.306043,10.9120405 C55.3337042,9.95482237 54.4486979,9.47621329 53.651024,9.47621329 C53.2182554,9.47621329 52.8778255,9.56711616 52.6297345,9.7489219 C52.3816435,9.93072763 52.259823,10.1557944 52.259823,10.4241221 C52.259823,10.629475 52.3376991,10.8167568 52.4934513,10.9887056 C52.6492035,11.161202 53.0380278,11.3955781 53.6554741,11.6973099 L55.0756005,12.3960572 C56.573603,13.1188993 57.6043489,13.8614553 58.1639444,14.6127729 C58.7229836,15.3695667 59,16.2501198 59,17.2648367 C59,18.6152372 58.4943616,19.7449517 57.4830847,20.6452187 C56.4712516,21.5498665 55.1145386,22 53.4123894,22 C51.1562073,22 49.3472566,21.1331371 48,19.3955781 L50.3974716,16.8294887 C50.8547155,17.3513588 51.3892794,17.7773975 52.0072819,18.097748 C52.6197219,18.418646 53.1642984,18.5818331 53.6410114,18.5818331 C54.1516561,18.5818331 54.5699621,18.461907 54.8814665,18.217674 C55.197421,17.973441 55.3531732,17.695804 55.3531732,17.3798343 C55.3531732,16.7911561 54.7885714,16.2167157 53.6554741,15.6614416 L52.3477118,15.014717 C49.8384324,13.7749333 48.5835145,12.2241084 48.5835145,10.3616948 C48.5835145,9.16024369 49.0552212,8.13074132 49.9986346,7.27866384 C50.942048,6.42658635 52.1480152,6 53.6170923,6 C54.6233628,6 55.5667762,6.22068588 56.4567889,6.65603395 C57.3417952,7.09192963 58.0910746,7.71894038 58.7085209,8.53268533 Z M71.7085209,8.53268533 L69.306043,10.9120405 C68.3337042,9.95482237 67.4486979,9.47621329 66.651024,9.47621329 C66.2182554,9.47621329 65.8778255,9.56711616 65.6297345,9.7489219 C65.3816435,9.93072763 65.259823,10.1557944 65.259823,10.4241221 C65.259823,10.629475 65.3376991,10.8167568 65.4934513,10.9887056 C65.6492035,11.161202 66.0380278,11.3955781 66.6554741,11.6973099 L68.0756005,12.3960572 C69.573603,13.1188993 70.6043489,13.8614553 71.1639444,14.6127729 C71.7229836,15.3695667 72,16.2501198 72,17.2648367 C72,18.6152372 71.4943616,19.7449517 70.4830847,20.6452187 C69.4712516,21.5498665 68.1145386,22 66.4123894,22 C64.1562073,22 62.3472566,21.1331371 61,19.3955781 L63.3974716,16.8294887 C63.8547155,17.3513588 64.3892794,17.7773975 65.0072819,18.097748 C65.6197219,18.418646 66.1642984,18.5818331 66.6410114,18.5818331 C67.1516561,18.5818331 67.5699621,18.461907 67.8809102,18.217674 C68.197421,17.973441 68.3531732,17.695804 68.3531732,17.3798343 C68.3531732,16.7911561 67.7885714,16.2167157 66.6554741,15.6614416 L65.3477118,15.014717 C62.8384324,13.7749333 61.5835145,12.2241084 61.5835145,10.3616948 C61.5835145,9.16024369 62.0552212,8.13074132 62.9986346,7.27866384 C63.942048,6.42658635 65.1480152,6 66.6170923,6 C67.6233628,6 68.5667762,6.22068588 69.4567889,6.65603395 C70.3417952,7.09192963 71.0910746,7.71894038 71.7085209,8.53268533 L71.7085209,8.53268533 Z" id="Fill-4"></path>
        </g>
        <g id="Group" transform="translate(78.000000, 14.000000)" fill="#0F1322">
            <polygon id="Path" points="0 22 2.82174424 1 3.24238364 1 11.5281147 18.2268805 19.7619417 1 20.0695816 1 23 22 21.0287259 22 18.987165 6.96662507 11.7741185 22 11.2399389 22 3.95606488 6.84953403 2.00371415 22"></polygon>
            <path d="M27.4956596,0 C27.9108085,0 28.2636596,0.146255061 28.5582979,0.442813765 C28.8529362,0.734817814 29,1.09311741 29,1.50455466 C29,1.91143725 28.8529362,2.26518219 28.5582979,2.55769231 C28.2636596,2.85374494 27.9108085,3 27.4956596,3 C27.0851064,3 26.7368511,2.85374494 26.4422128,2.55769231 C26.1475745,2.26518219 26,1.91143725 26,1.50455466 C26,1.09311741 26.1475745,0.734817814 26.4422128,0.442813765 C26.7368511,0.146255061 27.0851064,0 27.4956596,0 Z" id="Path"></path>
            <polygon id="Path" points="27 22 29 22 29 7 27 7"></polygon>
            <polygon id="Path" points="32 22 34 22 34 1 32 1"></polygon>
            <polygon id="Path" points="38 22 40 22 40 1 38 1"></polygon>
            <path d="M50.9561872,6 C53.5988215,6 55.7123744,6.98678897 57.2879723,8.95434321 C58.4082496,10.3425286 58.9805893,12.0757068 59,14.1582586 L45.0364645,14.1582586 C45.0747314,15.9242932 45.6520624,17.370525 46.762357,18.4953111 C47.877643,19.6250257 49.2541421,20.1901568 50.8885269,20.1901568 C51.6788215,20.1901568 52.4497054,20.0559929 53.1961872,19.7882127 C53.942669,19.519885 54.5782322,19.1655829 55.1017678,18.7203778 C55.6253033,18.2751728 56.1926516,17.5616401 56.7982669,16.5710179 L58.4759099,17.4422616 C57.9235355,18.5002396 57.2879723,19.3572455 56.5658925,20.008351 C55.8432582,20.654528 55.0335529,21.1523034 54.1317851,21.4923677 C53.225026,21.8324321 52.2073484,22 51.0676603,22 C48.5370537,22 46.5638128,21.1857074 45.1379549,19.5582175 C43.7126516,17.9307276 43,16.0924088 43,14.043261 C43,12.1140393 43.6056153,10.3901704 44.8129636,8.88260661 C46.340312,6.96269423 48.3911958,6 50.9561872,6 Z M50.9569089,8 C49.3751795,8 48.0186728,8.52067199 46.8833668,9.56797331 C46.0496984,10.3334922 45.4268888,11.4737281 45,13 L57,13 C56.7236426,11.8591684 56.3214594,10.9530561 55.7940247,10.2709401 C55.2619937,9.58882402 54.5639184,9.04193971 53.694628,8.62492553 C52.8259121,8.20850709 51.911807,8 50.9569089,8 Z" id="Combined-Shape"></path>
            <path d="M63,6.38239417 L64.9052139,6.38239417 L64.9052139,9.18138492 C65.6759522,8.11326044 66.5257406,7.31426969 67.4545791,6.78945893 C68.3887588,6.26520886 69.4019886,6 70.4990756,6 C71.6153909,6 72.6051194,6.29436501 73.4687949,6.8875806 C74.3330046,7.48079619 74.972883,8.27978694 75.383623,9.28455285 C75.794363,10.2848332 76,11.8480516 76,13.9708438 L76,22 L74.0947861,22 L74.0947861,14.5590132 C74.0947861,12.7647883 74.020009,11.5637791 73.8752619,10.9610317 C73.6418505,9.93159518 73.2124163,9.15727502 72.5821521,8.63246426 C71.9513538,8.11326044 71.1298739,7.85309784 70.1166441,7.85309784 C68.9538601,7.85309784 67.9123218,8.25511634 66.9973705,9.05915335 C66.0770779,9.8581441 65.4703151,10.8528175 65.1808209,12.0392487 C64.9986852,12.8141295 64.9052139,14.2253995 64.9052139,16.2792262 L64.9052139,22 L63,22 L63,6.38239417 Z" id="Path"></path>
            <path d="M81,6.38239417 L82.9052921,6.38239417 L82.9052921,9.18138492 C83.675528,8.11326044 84.5253513,7.31426969 85.4547621,6.78945893 C86.3884461,6.26520886 87.4017175,6 88.4993837,6 C89.6152108,6 90.605514,6.29436501 91.4692251,6.8875806 C92.3329361,7.48079619 92.9728408,8.27978694 93.3835977,9.28455285 C93.7948887,10.2848332 94,11.8480516 94,13.9708438 L94,22 L92.0947079,22 L92.0947079,14.5590132 C92.0947079,12.7647883 92.0204618,11.5637791 91.8757088,10.9610317 C91.6422878,9.93159518 91.2123018,9.15727502 90.5820117,8.63246426 C89.9517216,8.11326044 89.1296738,7.85309784 88.1164023,7.85309784 C86.9535705,7.85309784 85.9119895,8.25511634 84.9970006,9.05915335 C84.0772044,9.8581441 83.4698825,10.8528175 83.1803764,12.0392487 C82.9982332,12.8141295 82.9052921,14.2253995 82.9052921,16.2792262 L82.9052921,22 L81,22 L81,6.38239417 Z" id="Path"></path>
            <path d="M98.4956596,0 C98.9108085,0 99.2636596,0.146255061 99.5582979,0.442813765 C99.8529362,0.734817814 100,1.09311741 100,1.50455466 C100,1.91143725 99.8529362,2.26518219 99.5582979,2.55769231 C99.2636596,2.85374494 98.9108085,3 98.4956596,3 C98.0851064,3 97.7368511,2.85374494 97.4422128,2.55769231 C97.1475745,2.26518219 97,1.91143725 97,1.50455466 C97,1.09311741 97.1475745,0.734817814 97.4422128,0.442813765 C97.7368511,0.146255061 98.0851064,0 98.4956596,0 Z" id="Path"></path>
            <polygon id="Path" points="98 22 100 22 100 7 98 7"></polygon>
            <path d="M104,6 L105.901074,6 L105.901074,13.2890384 C105.901074,15.0686852 105.994342,16.2893188 106.176082,16.960471 C106.446294,17.9164564 106.97286,18.6711522 107.741924,19.2256798 C108.510454,19.7790861 109.433011,20.058873 110.5,20.058873 C111.566989,20.058873 112.470892,19.7891786 113.216505,19.2497897 C113.957322,18.7059153 114.474295,18 114.7541,17.1174657 C114.9449,16.5147183 115.042965,15.2402579 115.042965,13.2890384 L115.042965,6 L117,6 L117,13.6568545 C117,15.8088029 116.762299,17.4264087 116.282101,18.5147183 C115.807232,19.6075133 115.084536,20.4603308 114.125205,21.0731707 C113.165341,21.6910569 111.96298,22 110.513857,22 C109.064734,22 107.858109,21.6910569 106.889185,21.0731707 C105.919728,20.4603308 105.192768,19.5979815 104.717899,18.4950939 C104.237701,17.3922063 104,15.7303056 104,13.5149986 L104,6 Z" id="Path"></path>
            <path d="M121,6.38239417 L122.969819,6.38239417 L122.969819,9.08382394 C123.660112,8.08858985 124.364763,7.35800392 125.094264,6.89711242 C126.093256,6.29941127 127.145814,6 128.246416,6 C128.995246,6 129.699897,6.14746285 130.370861,6.44631343 C131.041826,6.74067844 131.587433,7.13765069 132.012101,7.62769835 C132.437321,8.12279226 132.804005,8.8287076 133.117674,9.75049061 C133.77428,8.52481077 134.59987,7.59349593 135.585056,6.95598542 C136.57466,6.3190356 137.636606,6 138.776417,6 C139.838363,6 140.779923,6.27474068 141.590602,6.81917578 C142.406804,7.36305018 143.009844,8.12279226 143.405796,9.09840202 C143.801748,10.0734511 144,11.5346229 144,13.4852817 L144,22 L141.972196,22 L141.972196,13.4802355 C141.972196,11.8037567 141.856227,10.6571348 141.619871,10.0297168 C141.382962,9.40229885 140.982593,8.89711242 140.412687,8.51471825 C139.843334,8.13232408 139.167399,7.94168769 138.375495,7.94168769 C137.419578,7.94168769 136.540973,8.23044575 135.74907,8.80403701 C134.952748,9.37762826 134.373454,10.1424166 134.006219,11.098402 C133.639535,12.0538267 133.455641,13.6518082 133.455641,15.8873003 L133.455641,22 L131.486374,22 L131.486374,14.0100925 C131.486374,12.1278385 131.370405,10.8483319 131.138467,10.1715728 C130.907081,9.49537426 130.506159,8.95598542 129.931835,8.54948136 C129.351989,8.1424166 128.671637,7.94168769 127.879733,7.94168769 C126.962472,7.94168769 126.108166,8.22091393 125.311292,8.77936641 C124.514418,9.33837959 123.925737,10.0936361 123.544143,11.039529 C123.162549,11.9854219 122.969819,13.4365013 122.969819,15.3871601 L122.969819,22 L121,22 L121,6.38239417 Z" id="Path"></path>
        </g>
    </g>
</svg>