<svg enable-background="new 0 0 87.87 87.87" height="87.87" viewBox="0 0 87.87 87.87" width="87.87" xmlns="http://www.w3.org/2000/svg"><g clip-rule="evenodd" fill-rule="evenodd"><path d="m39.609 6.516c18.102 0 32.776 14.674 32.776 32.776 0 18.101-14.674 32.776-32.776 32.776s-32.776-14.674-32.776-32.776 14.675-32.776 32.776-32.776zm1.813-1.865c19.86 0 35.959 16.099 35.959 35.959s-16.099 35.959-35.959 35.959-35.959-16.099-35.959-35.959c0-19.86 16.1-35.959 35.959-35.959z" fill="#0095c8"/><path d="m43.498.991c22.445 0 40.64 18.195 40.64 40.64s-18.195 40.64-40.64 40.64-40.64-18.195-40.64-40.64c0-22.445 18.195-40.64 40.64-40.64zm.438-.743c24.206 0 43.828 19.623 43.828 43.828s-19.622 43.828-43.828 43.828c-24.205 0-43.828-19.622-43.828-43.828 0-24.205 19.622-43.828 43.828-43.828z" fill="#0e1322" stroke="#0e1322" stroke-miterlimit="22.9256" stroke-width=".216"/></g></svg>