<?xml version="1.0" encoding="utf-8"?>
<!-- Generator: Adobe Illustrator 19.2.1, SVG Export Plug-In . SVG Version: 6.00 Build 0)  -->
<svg version="1.1" id="Layer_1" xmlns="http://www.w3.org/2000/svg" xmlns:xlink="http://www.w3.org/1999/xlink" x="0px" y="0px"
	 width="87.87px" height="87.87px" viewBox="0 0 87.87 87.87" enable-background="new 0 0 87.87 87.87" xml:space="preserve">
<path fill-rule="evenodd" clip-rule="evenodd" fill="#0095C8" d="M39.609,6.516c18.102,0,32.776,14.674,32.776,32.776
	c0,18.101-14.674,32.776-32.776,32.776c-18.102,0-32.776-14.674-32.776-32.776C6.833,21.19,21.508,6.516,39.609,6.516L39.609,6.516z
	 M41.422,4.651c19.86,0,35.959,16.099,35.959,35.959c0,19.86-16.099,35.959-35.959,35.959c-19.86,0-35.959-16.099-35.959-35.959
	C5.463,20.75,21.563,4.651,41.422,4.651L41.422,4.651z"/>
<path fill-rule="evenodd" clip-rule="evenodd" fill="#0E1322" stroke="#0E1322" stroke-width="0.216" stroke-miterlimit="22.9256" d="
	M43.498,0.991c22.445,0,40.64,18.195,40.64,40.64c0,22.445-18.195,40.64-40.64,40.64c-22.445,0-40.64-18.195-40.64-40.64
	C2.858,19.186,21.053,0.991,43.498,0.991L43.498,0.991z M43.936,0.248c24.206,0,43.828,19.623,43.828,43.828
	c0,24.205-19.622,43.828-43.828,43.828c-24.205,0-43.828-19.622-43.828-43.828C0.108,19.871,19.73,0.248,43.936,0.248L43.936,0.248z
	"/>
</svg>
