<?xml version="1.0" encoding="UTF-8"?>
<svg width="110px" height="110px" viewBox="0 0 110 110" version="1.1" xmlns="http://www.w3.org/2000/svg" xmlns:xlink="http://www.w3.org/1999/xlink">
    <!-- Generator: Sketch 61.2 (89653) - https://sketch.com -->
    <title>mg-sq-logo@2x</title>
    <desc>Created with Sketch.</desc>
    <g id="mg-sq-logo" stroke="none" stroke-width="1" fill="none" fill-rule="evenodd">
        <rect fill="#0095C8" x="0" y="0" width="110" height="110"></rect>
        <path d="M52.422,14.651 C72.282,14.651 88.381,30.75 88.381,50.61 C88.381,70.47 72.282,86.569 52.422,86.569 C32.562,86.569 16.463,70.47 16.463,50.61 C16.463,30.75 32.563,14.651 52.422,14.651 Z M50.609,16.516 C32.508,16.516 17.833,31.19 17.833,49.292 C17.833,67.394 32.507,82.068 50.609,82.068 C68.711,82.068 83.385,67.393 83.385,49.292 C83.385,31.19 68.711,16.516 50.609,16.516 Z" id="Shape" fill="#FFFFFF" fill-rule="nonzero"></path>
        <path d="M54.936,10.248 C79.142,10.248 98.764,29.871 98.764,54.076 C98.764,78.281 79.142,97.904 54.936,97.904 C30.731,97.904 11.108,78.282 11.108,54.076 C11.108,29.871 30.73,10.248 54.936,10.248 Z M54.498,10.991 C32.053,10.991 13.858,29.186 13.858,51.631 C13.858,74.076 32.053,92.271 54.498,92.271 C76.943,92.271 95.138,74.076 95.138,51.631 C95.138,29.186 76.943,10.991 54.498,10.991 Z" id="Shape" fill="#FFFFFF" fill-rule="nonzero"></path>
    </g>
</svg>